<?xml version="1.0" encoding="UTF-8"?><svg id="uuid-8b673f40-f57e-4e06-b5b6-523fcea8d253" xmlns="http://www.w3.org/2000/svg" width="242.64mm" height="134.03mm" viewBox="0 0 687.81 379.92"><g style="isolation:isolate;"><g style="isolation:isolate;"><path d="M224,44.5h59.5c8.83,0,17.12.88,24.88,2.62s14.5,4.67,20.25,8.75c5.75,4.09,10.29,9.5,13.62,16.25,3.33,6.75,5,15.04,5,24.88s-1.71,17.75-5.12,24.75c-3.42,7-8.04,12.75-13.88,17.25-5.84,4.5-12.59,7.84-20.25,10-7.67,2.17-15.84,3.25-24.5,3.25h-22.5v55.25h-37V44.5ZM281.25,123c20,0,30-8.66,30-26,0-8.5-2.54-14.5-7.62-18-5.09-3.5-12.54-5.25-22.38-5.25h-20.25v49.25h20.25Z" style="fill:#231f20;"/><path d="M375.25,44.5h46c12.5,0,23.79,1.59,33.88,4.75,10.08,3.17,18.71,8.04,25.88,14.62,7.16,6.59,12.66,14.96,16.5,25.12,3.83,10.17,5.75,22.25,5.75,36.25s-1.92,26.17-5.75,36.5c-3.84,10.34-9.25,18.88-16.25,25.62s-15.38,11.79-25.12,15.12c-9.75,3.34-20.62,5-32.62,5h-48.25V44.5ZM419.25,177.75c6.83,0,13.08-.91,18.75-2.75,5.66-1.83,10.54-4.79,14.62-8.88s7.25-9.46,9.5-16.12c2.25-6.66,3.38-14.91,3.38-24.75s-1.12-17.79-3.38-24.38c-2.25-6.58-5.42-11.83-9.5-15.75-4.09-3.91-8.96-6.71-14.62-8.38-5.67-1.66-11.92-2.5-18.75-2.5h-7v103.5h7Z" style="fill:#231f20;"/><path d="M533.75,44.5h103v31h-66v37.75h56.25v31h-56.25v63.25h-37V44.5Z" style="fill:#231f20;"/></g></g><g style="isolation:isolate;"><g style="isolation:isolate;"><path d="M7.28,312.02c0-7.37,3.22-13.07,9.66-17.08,6.44-4.01,16.71-6.81,30.8-8.4,0-1.77-.23-3.48-.7-5.11-.47-1.63-1.19-3.08-2.17-4.34s-2.24-2.24-3.78-2.94c-1.54-.7-3.48-1.05-5.81-1.05-3.45,0-6.79.65-10.01,1.96-3.22,1.31-6.32,2.89-9.31,4.76l-5.88-10.78c3.83-2.43,8.1-4.53,12.81-6.3,4.71-1.77,9.82-2.66,15.33-2.66,8.68,0,15.12,2.54,19.32,7.63,4.2,5.09,6.3,12.44,6.3,22.05v40.74h-13.16l-1.26-7.56h-.42c-3.08,2.61-6.37,4.81-9.87,6.58-3.5,1.77-7.3,2.66-11.41,2.66-6.07,0-10.99-1.84-14.77-5.53-3.78-3.69-5.67-8.56-5.67-14.63ZM22.96,310.76c0,3.08.91,5.32,2.73,6.72,1.82,1.4,4.18,2.1,7.07,2.1s5.37-.65,7.7-1.96c2.33-1.31,4.76-3.17,7.28-5.6v-15.4c-4.67.56-8.59,1.31-11.76,2.24-3.17.93-5.72,1.98-7.63,3.15-1.91,1.17-3.29,2.5-4.13,3.99-.84,1.49-1.26,3.08-1.26,4.76Z" style="fill:#231f20;"/><path d="M84.14,312.3c3.08,2.43,6.14,4.32,9.17,5.67,3.03,1.35,6.32,2.03,9.87,2.03,3.73,0,6.49-.77,8.26-2.31,1.77-1.54,2.66-3.52,2.66-5.95,0-1.4-.42-2.64-1.26-3.71-.84-1.07-1.96-2.03-3.36-2.87-1.4-.84-2.99-1.61-4.76-2.31-1.77-.7-3.55-1.42-5.32-2.17-2.24-.84-4.53-1.82-6.86-2.94-2.33-1.12-4.41-2.47-6.23-4.06-1.82-1.59-3.31-3.43-4.48-5.53-1.17-2.1-1.75-4.6-1.75-7.49,0-6.07,2.24-11.01,6.72-14.84,4.48-3.83,10.59-5.74,18.34-5.74,4.76,0,9.05.84,12.88,2.52,3.83,1.68,7.14,3.59,9.94,5.74l-7.42,9.8c-2.43-1.77-4.88-3.2-7.35-4.27-2.47-1.07-5.06-1.61-7.77-1.61-3.45,0-6,.72-7.63,2.17-1.63,1.45-2.45,3.24-2.45,5.39,0,1.31.4,2.45,1.19,3.43.79.98,1.84,1.87,3.15,2.66,1.31.79,2.82,1.52,4.55,2.17,1.73.65,3.52,1.31,5.39,1.96,2.33.84,4.67,1.8,7,2.87,2.33,1.07,4.46,2.4,6.37,3.99,1.91,1.59,3.45,3.52,4.62,5.81,1.17,2.29,1.75,5.02,1.75,8.19,0,2.99-.58,5.76-1.75,8.33-1.17,2.57-2.87,4.81-5.11,6.72-2.24,1.91-5.04,3.43-8.4,4.55-3.36,1.12-7.19,1.68-11.48,1.68-4.76,0-9.45-.91-14.07-2.73-4.62-1.82-8.61-4.08-11.97-6.79l7.56-10.36Z" style="fill:#231f20;"/><path d="M144.48,312.3c3.08,2.43,6.14,4.32,9.17,5.67,3.03,1.35,6.32,2.03,9.87,2.03,3.73,0,6.49-.77,8.26-2.31,1.77-1.54,2.66-3.52,2.66-5.95,0-1.4-.42-2.64-1.26-3.71-.84-1.07-1.96-2.03-3.36-2.87-1.4-.84-2.99-1.61-4.76-2.31-1.77-.7-3.55-1.42-5.32-2.17-2.24-.84-4.53-1.82-6.86-2.94-2.33-1.12-4.41-2.47-6.23-4.06-1.82-1.59-3.31-3.43-4.48-5.53-1.17-2.1-1.75-4.6-1.75-7.49,0-6.07,2.24-11.01,6.72-14.84,4.48-3.83,10.59-5.74,18.34-5.74,4.76,0,9.05.84,12.88,2.52,3.83,1.68,7.14,3.59,9.94,5.74l-7.42,9.8c-2.43-1.77-4.88-3.2-7.35-4.27-2.47-1.07-5.06-1.61-7.77-1.61-3.45,0-6,.72-7.63,2.17-1.63,1.45-2.45,3.24-2.45,5.39,0,1.31.4,2.45,1.19,3.43.79.98,1.84,1.87,3.15,2.66,1.31.79,2.82,1.52,4.55,2.17,1.73.65,3.52,1.31,5.39,1.96,2.33.84,4.67,1.8,7,2.87,2.33,1.07,4.46,2.4,6.37,3.99,1.91,1.59,3.45,3.52,4.62,5.81,1.17,2.29,1.75,5.02,1.75,8.19,0,2.99-.58,5.76-1.75,8.33-1.17,2.57-2.87,4.81-5.11,6.72-2.24,1.91-5.04,3.43-8.4,4.55-3.36,1.12-7.19,1.68-11.48,1.68-4.76,0-9.45-.91-14.07-2.73-4.62-1.82-8.61-4.08-11.97-6.79l7.56-10.36Z" style="fill:#231f20;"/><path d="M199.64,296.2c0-5.69.89-10.78,2.66-15.26,1.77-4.48,4.18-8.26,7.21-11.34,3.03-3.08,6.51-5.44,10.43-7.07,3.92-1.63,8.03-2.45,12.32-2.45s8.42.82,12.39,2.45c3.97,1.63,7.44,3.99,10.43,7.07,2.99,3.08,5.39,6.86,7.21,11.34,1.82,4.48,2.73,9.57,2.73,15.26s-.91,10.78-2.73,15.26c-1.82,4.48-4.22,8.26-7.21,11.34-2.99,3.08-6.46,5.41-10.43,7-3.97,1.59-8.1,2.38-12.39,2.38s-8.4-.79-12.32-2.38-7.4-3.92-10.43-7c-3.03-3.08-5.44-6.86-7.21-11.34-1.77-4.48-2.66-9.57-2.66-15.26ZM216.16,296.2c0,6.91,1.42,12.44,4.27,16.59,2.85,4.15,6.79,6.23,11.83,6.23s9.01-2.08,11.9-6.23c2.89-4.15,4.34-9.68,4.34-16.59s-1.45-12.58-4.34-16.73c-2.89-4.15-6.86-6.23-11.9-6.23s-8.98,2.08-11.83,6.23c-2.85,4.15-4.27,9.73-4.27,16.73Z" style="fill:#231f20;"/><path d="M276.5,296.2c0-5.69.93-10.78,2.8-15.26,1.87-4.48,4.39-8.26,7.56-11.34,3.17-3.08,6.84-5.44,10.99-7.07,4.15-1.63,8.52-2.45,13.09-2.45s8.38.77,11.69,2.31c3.31,1.54,6.14,3.43,8.47,5.67l-7.7,10.22c-1.87-1.59-3.73-2.82-5.6-3.71-1.87-.89-3.87-1.33-6.02-1.33-5.6,0-10.13,2.08-13.58,6.23-3.45,4.15-5.18,9.73-5.18,16.73s1.7,12.44,5.11,16.59c3.41,4.15,7.82,6.23,13.23,6.23,2.8,0,5.39-.58,7.77-1.75,2.38-1.17,4.5-2.54,6.37-4.13l6.72,10.22c-3.27,2.89-6.86,5.09-10.78,6.58-3.92,1.49-7.84,2.24-11.76,2.24-4.67,0-9.03-.79-13.09-2.38-4.06-1.59-7.58-3.92-10.57-7-2.99-3.08-5.32-6.86-7-11.34-1.68-4.48-2.52-9.57-2.52-15.26Z" style="fill:#231f20;"/><path d="M353.78,249.72c-2.89,0-5.27-.84-7.14-2.52-1.87-1.68-2.8-3.87-2.8-6.58s.93-4.92,2.8-6.65c1.87-1.73,4.25-2.59,7.14-2.59s5.27.86,7.14,2.59c1.87,1.73,2.8,3.94,2.8,6.65s-.93,4.9-2.8,6.58c-1.87,1.68-4.25,2.52-7.14,2.52ZM345.66,261.76h16.1v68.74h-16.1v-68.74Z" style="fill:#231f20;"/><path d="M379.4,312.02c0-7.37,3.22-13.07,9.66-17.08,6.44-4.01,16.71-6.81,30.8-8.4,0-1.77-.23-3.48-.7-5.11-.47-1.63-1.19-3.08-2.17-4.34-.98-1.26-2.24-2.24-3.78-2.94-1.54-.7-3.48-1.05-5.81-1.05-3.45,0-6.79.65-10.01,1.96-3.22,1.31-6.32,2.89-9.31,4.76l-5.88-10.78c3.83-2.43,8.1-4.53,12.81-6.3,4.71-1.77,9.82-2.66,15.33-2.66,8.68,0,15.12,2.54,19.32,7.63,4.2,5.09,6.3,12.44,6.3,22.05v40.74h-13.16l-1.26-7.56h-.42c-3.08,2.61-6.37,4.81-9.87,6.58-3.5,1.77-7.3,2.66-11.41,2.66-6.07,0-10.99-1.84-14.77-5.53-3.78-3.69-5.67-8.56-5.67-14.63ZM395.08,310.76c0,3.08.91,5.32,2.73,6.72,1.82,1.4,4.18,2.1,7.07,2.1s5.37-.65,7.7-1.96c2.33-1.31,4.76-3.17,7.28-5.6v-15.4c-4.67.56-8.59,1.31-11.76,2.24-3.17.93-5.72,1.98-7.63,3.15-1.91,1.17-3.29,2.5-4.13,3.99-.84,1.49-1.26,3.08-1.26,4.76Z" style="fill:#231f20;"/><path d="M457.94,274.5h-9.8v-12.04l10.64-.7,1.96-18.76h13.44v18.76h17.5v12.74h-17.5v32.76c0,8.03,3.22,12.04,9.66,12.04,1.21,0,2.45-.14,3.71-.42s2.4-.65,3.43-1.12l2.8,11.9c-1.87.65-3.99,1.24-6.37,1.75-2.38.51-4.92.77-7.63.77-4.01,0-7.4-.61-10.15-1.82-2.75-1.21-4.99-2.92-6.72-5.11-1.73-2.19-2.99-4.81-3.78-7.84-.79-3.03-1.19-6.42-1.19-10.15v-32.76Z" style="fill:#231f20;"/><path d="M514.21,249.72c-2.89,0-5.27-.84-7.14-2.52-1.87-1.68-2.8-3.87-2.8-6.58s.93-4.92,2.8-6.65c1.87-1.73,4.25-2.59,7.14-2.59s5.27.86,7.14,2.59c1.87,1.73,2.8,3.94,2.8,6.65s-.93,4.9-2.8,6.58c-1.87,1.68-4.25,2.52-7.14,2.52ZM506.09,261.76h16.1v68.74h-16.1v-68.74Z" style="fill:#231f20;"/><path d="M538.29,296.2c0-5.69.89-10.78,2.66-15.26,1.77-4.48,4.18-8.26,7.21-11.34,3.03-3.08,6.51-5.44,10.43-7.07,3.92-1.63,8.03-2.45,12.32-2.45s8.42.82,12.39,2.45c3.97,1.63,7.44,3.99,10.43,7.07,2.99,3.08,5.39,6.86,7.21,11.34,1.82,4.48,2.73,9.57,2.73,15.26s-.91,10.78-2.73,15.26c-1.82,4.48-4.22,8.26-7.21,11.34-2.99,3.08-6.46,5.41-10.43,7-3.97,1.59-8.1,2.38-12.39,2.38s-8.4-.79-12.32-2.38-7.4-3.92-10.43-7c-3.03-3.08-5.44-6.86-7.21-11.34-1.77-4.48-2.66-9.57-2.66-15.26ZM554.81,296.2c0,6.91,1.42,12.44,4.27,16.59,2.85,4.15,6.79,6.23,11.83,6.23s9.01-2.08,11.9-6.23c2.89-4.15,4.34-9.68,4.34-16.59s-1.45-12.58-4.34-16.73c-2.89-4.15-6.86-6.23-11.9-6.23s-8.98,2.08-11.83,6.23c-2.85,4.15-4.27,9.73-4.27,16.73Z" style="fill:#231f20;"/><path d="M619.63,261.76h13.3l1.12,9.24h.56c3.08-2.99,6.42-5.55,10.01-7.7,3.59-2.15,7.77-3.22,12.53-3.22,7.37,0,12.74,2.36,16.1,7.07,3.36,4.71,5.04,11.46,5.04,20.23v43.12h-16.1v-41.02c0-5.69-.84-9.71-2.52-12.04-1.68-2.33-4.43-3.5-8.26-3.5-2.99,0-5.62.72-7.91,2.17-2.29,1.45-4.88,3.57-7.77,6.37v48.02h-16.1v-68.74Z" style="fill:#231f20;"/></g></g><rect x="128" y="28.5" width="60" height="60" style="fill:#ca9831;"/><rect x="68" y="88.5" width="60" height="60" style="fill:#8b985b;"/><rect x="8" y="148.5" width="60" height="60" style="fill:#d03f4e;"/><rect x="128" y="148.5" width="60" height="60" style="fill:#4891af;"/></svg>