<?xml version="1.0" encoding="UTF-8"?><svg id="uuid-b569435d-e0bc-4e79-812f-d96635b8a052" xmlns="http://www.w3.org/2000/svg" width="77.89mm" height="87.22mm" viewBox="0 0 220.8 247.24"><text transform="translate(34 18.4)" style="font-family:SourceSansPro-Regular, &apos;Source Sans Pro&apos;; font-size:12px;"><tspan x="0" y="0"> </tspan></text><rect x="68" y=".6" width="11.4" height="10.2" style="fill:#fff;"/><rect x="73.2" y=".6" width="1" height="10.2" style="fill:#fff;"/><text transform="translate(73.6 18.4)" style="font-family:SourceSansPro-Regular, &apos;Source Sans Pro&apos;; font-size:12px;"><tspan x="0" y="0" style="letter-spacing:3.12em;"> </tspan><tspan x="39.82" y="0"> </tspan></text><rect x="147.4" y=".6" width="11.4" height="10.2" style="fill:#fff;"/><rect x="152.6" y=".6" width="1" height="10.2" style="fill:#fff;"/><text transform="translate(153 18.4)" style="font-family:SourceSansPro-Regular, &apos;Source Sans Pro&apos;; font-size:12px;"><tspan x="0" y="0" style="letter-spacing:2.87em;"> </tspan><tspan x="36.82" y="0"> </tspan></text><rect y="0" width=".4" height=".6"/><rect width=".4" height=".4"/><rect x=".4" width="67.2" height=".4"/><rect x="67.6" y="0" width=".4" height=".6"/><rect x="67.6" width=".4" height=".4"/><rect x="68" y="0" width="11.4" height=".6" style="fill:#fff;"/><rect x="79.4" y="0" width=".4" height=".6"/><rect x="79.4" width=".4" height=".4"/><rect x="79.8" width="67.2" height=".4"/><rect x="147" y="0" width=".4" height=".6"/><rect x="147" width=".4" height=".4"/><rect x="147.4" y="0" width="11.4" height=".6" style="fill:#fff;"/><rect x="158.8" y="0" width=".4" height=".6"/><rect x="158.8" width=".4" height=".4"/><rect x="159.2" width="61.2" height=".4"/><rect x="220.4" y="0" width=".4" height=".6"/><rect x="220.4" width=".4" height=".4"/><rect y=".6" width=".4" height="10.2"/><rect x="67.6" y=".6" width=".4" height="10.2"/><rect x="79.4" y=".6" width=".4" height="10.2"/><rect x="147" y=".6" width=".4" height="10.2"/><rect x="158.8" y=".6" width=".4" height="10.2"/><rect x="220.4" y=".6" width=".4" height="10.2"/><rect x=".6" y="10.8" width="67" height="10.8" style="fill:#f2f2f2;"/><rect x="5.6" y="10.8" width="56.8" height="10.8" style="fill:#f2f2f2;"/><text transform="translate(34 28.6)" style="font-family:SourceSansPro-Regular, &apos;Source Sans Pro&apos;; font-size:12px;"><tspan x="0" y="0"> </tspan></text><rect x="68" y="10.8" width="11.4" height="10.8" style="fill:#fff;"/><rect x="73.2" y="10.8" width="1" height="10.8" style="fill:#fff;"/><text transform="translate(73.6 28.6)" style="font-family:SourceSansPro-Regular, &apos;Source Sans Pro&apos;; font-size:12px;"><tspan x="0" y="0"> </tspan></text><rect x="79.8" y="10.8" width="67.2" height="10.8" style="fill:#f2f2f2;"/><rect x="85" y="10.8" width="56.8" height="10.8" style="fill:#f2f2f2;"/><text transform="translate(113.4 28.6)" style="font-family:SourceSansPro-Regular, &apos;Source Sans Pro&apos;; font-size:12px;"><tspan x="0" y="0"> </tspan></text><rect x="147.4" y="10.8" width="11.4" height="10.8" style="fill:#fff;"/><rect x="152.6" y="10.8" width="1" height="10.8" style="fill:#fff;"/><text transform="translate(153 28.6)" style="font-family:SourceSansPro-Regular, &apos;Source Sans Pro&apos;; font-size:12px;"><tspan x="0" y="0"> </tspan></text><rect x="159.2" y="10.8" width="61.2" height="10.8" style="fill:#f2f2f2;"/><rect x="164.4" y="10.8" width="50.8" height="10.8" style="fill:#f2f2f2;"/><text transform="translate(189.8 28.6)" style="font-family:SourceSansPro-Regular, &apos;Source Sans Pro&apos;; font-size:12px;"><tspan x="0" y="0"> </tspan></text><rect y="10.8" width=".4" height="10.8"/><rect x="67.6" y="10.8" width=".4" height="10.8"/><rect x="79.4" y="10.8" width=".4" height="10.8"/><rect x="147" y="10.8" width=".4" height="10.8"/><rect x="158.8" y="10.8" width=".4" height="10.8"/><rect x="220.4" y="10.8" width=".4" height="10.8"/><rect x=".6" y="21.6" width="67" height="10.8" style="fill:#ccc;"/><rect x="5.6" y="21.6" width="56.8" height="10.8" style="fill:#ccc;"/><text transform="translate(34 39.4)" style="font-family:SourceSansPro-Regular, &apos;Source Sans Pro&apos;; font-size:12px;"><tspan x="0" y="0"> </tspan></text><rect x="68" y="21.6" width="11.4" height="10.8" style="fill:#fff;"/><rect x="73.2" y="21.6" width="1" height="10.8" style="fill:#fff;"/><text transform="translate(73.6 39.4)" style="font-family:SourceSansPro-Regular, &apos;Source Sans Pro&apos;; font-size:12px;"><tspan x="0" y="0"> </tspan></text><rect x="79.8" y="21.6" width="67.2" height="10.8" style="fill:#ccc;"/><rect x="85" y="21.6" width="56.8" height="10.8" style="fill:#ccc;"/><text transform="translate(113.4 39.4)" style="font-family:SourceSansPro-Regular, &apos;Source Sans Pro&apos;; font-size:12px;"><tspan x="0" y="0"> </tspan></text><rect x="147.4" y="21.6" width="11.4" height="10.8" style="fill:#fff;"/><rect x="152.6" y="21.6" width="1" height="10.8" style="fill:#fff;"/><text transform="translate(153 39.4)" style="font-family:SourceSansPro-Regular, &apos;Source Sans Pro&apos;; font-size:12px;"><tspan x="0" y="0"> </tspan></text><rect x="159.2" y="21.6" width="61.2" height="10.8" style="fill:#e5e5e5;"/><rect x="164.4" y="21.6" width="50.8" height="10.8" style="fill:#e5e5e5;"/><text transform="translate(189.8 39.4)" style="font-family:SourceSansPro-Regular, &apos;Source Sans Pro&apos;; font-size:12px;"><tspan x="0" y="0"> </tspan></text><rect y="21.6" width=".4" height="10.8"/><rect x="67.6" y="21.6" width=".4" height="10.8"/><rect x="79.4" y="21.6" width=".4" height="10.8"/><rect x="147" y="21.6" width=".4" height="10.8"/><rect x="158.8" y="21.6" width=".4" height="10.8"/><rect x="220.4" y="21.6" width=".4" height="10.8"/><rect x=".6" y="32.4" width="67" height="10.8" style="fill:#bfbfbf;"/><rect x="5.6" y="32.4" width="56.8" height="10.8" style="fill:#bfbfbf;"/><text transform="translate(34 50.2)" style="font-family:SourceSansPro-Regular, &apos;Source Sans Pro&apos;; font-size:12px;"><tspan x="0" y="0"> </tspan></text><rect x="68" y="32.4" width="11.4" height="10.8" style="fill:#fff;"/><rect x="73.2" y="32.4" width="1" height="10.8" style="fill:#fff;"/><text transform="translate(73.6 50.2)" style="font-family:SourceSansPro-Regular, &apos;Source Sans Pro&apos;; font-size:12px;"><tspan x="0" y="0"> </tspan></text><rect x="79.8" y="32.4" width="67.2" height="10.8" style="fill:#bfbfbf;"/><rect x="85" y="32.4" width="56.8" height="10.8" style="fill:#bfbfbf;"/><text transform="translate(113.4 50.2)" style="font-family:SourceSansPro-Regular, &apos;Source Sans Pro&apos;; font-size:12px;"><tspan x="0" y="0"> </tspan></text><rect x="147.4" y="32.4" width="11.4" height="10.8" style="fill:#fff;"/><rect x="152.6" y="32.4" width="1" height="10.8" style="fill:#fff;"/><text transform="translate(153 50.2)" style="font-family:SourceSansPro-Regular, &apos;Source Sans Pro&apos;; font-size:12px;"><tspan x="0" y="0"> </tspan></text><rect x="159.2" y="32.4" width="61.2" height="10.8" style="fill:#dfdfdf;"/><rect x="164.4" y="32.4" width="50.8" height="10.8" style="fill:#dfdfdf;"/><text transform="translate(189.8 50.2)" style="font-family:SourceSansPro-Regular, &apos;Source Sans Pro&apos;; font-size:12px;"><tspan x="0" y="0"> </tspan></text><rect y="32.4" width=".4" height="10.8"/><rect x="67.6" y="32.4" width=".4" height="10.8"/><rect x="79.4" y="32.4" width=".4" height="10.8"/><rect x="147" y="32.4" width=".4" height="10.8"/><rect x="158.8" y="32.4" width=".4" height="10.8"/><rect x="220.4" y="32.4" width=".4" height="10.8"/><rect x=".6" y="43.2" width="67" height="10.8" style="fill:#b2b2b2;"/><rect x="5.6" y="43.2" width="56.8" height="10.8" style="fill:#b2b2b2;"/><text transform="translate(34 61)" style="font-family:SourceSansPro-Regular, &apos;Source Sans Pro&apos;; font-size:12px;"><tspan x="0" y="0"> </tspan></text><rect x="68" y="43.2" width="11.4" height="10.8" style="fill:#fff;"/><rect x="73.2" y="43.2" width="1" height="10.8" style="fill:#fff;"/><text transform="translate(73.6 61)" style="font-family:SourceSansPro-Regular, &apos;Source Sans Pro&apos;; font-size:12px;"><tspan x="0" y="0"> </tspan></text><rect x="79.8" y="43.2" width="67.2" height="10.8" style="fill:#b2b2b2;"/><rect x="85" y="43.2" width="56.8" height="10.8" style="fill:#b2b2b2;"/><text transform="translate(113.4 61)" style="font-family:SourceSansPro-Regular, &apos;Source Sans Pro&apos;; font-size:12px;"><tspan x="0" y="0"> </tspan></text><rect x="147.4" y="43.2" width="11.4" height="10.8" style="fill:#fff;"/><rect x="152.6" y="43.2" width="1" height="10.8" style="fill:#fff;"/><text transform="translate(153 61)" style="font-family:SourceSansPro-Regular, &apos;Source Sans Pro&apos;; font-size:12px;"><tspan x="0" y="0"> </tspan></text><rect x="159.2" y="43.2" width="61.2" height="10.8" style="fill:#d9d9d9;"/><rect x="164.4" y="43.2" width="50.8" height="10.8" style="fill:#d9d9d9;"/><text transform="translate(189.8 61)" style="font-family:SourceSansPro-Regular, &apos;Source Sans Pro&apos;; font-size:12px;"><tspan x="0" y="0"> </tspan></text><rect y="43.2" width=".4" height="10.8"/><rect x="67.6" y="43.2" width=".4" height="10.8"/><rect x="79.4" y="43.2" width=".4" height="10.8"/><rect x="147" y="43.2" width=".4" height="10.8"/><rect x="158.8" y="43.2" width=".4" height="10.8"/><rect x="220.4" y="43.2" width=".4" height="10.8"/><rect x=".6" y="54" width="67" height="10.8" style="fill:#a6a6a6;"/><rect x="5.6" y="54" width="56.8" height="10.8" style="fill:#a6a6a6;"/><text transform="translate(34 71.8)" style="font-family:SourceSansPro-Regular, &apos;Source Sans Pro&apos;; font-size:12px;"><tspan x="0" y="0"> </tspan></text><rect x="68" y="54" width="11.4" height="10.8" style="fill:#fff;"/><rect x="73.2" y="54" width="1" height="10.8" style="fill:#fff;"/><text transform="translate(73.6 71.8)" style="font-family:SourceSansPro-Regular, &apos;Source Sans Pro&apos;; font-size:12px;"><tspan x="0" y="0"> </tspan></text><rect x="79.8" y="54" width="67.2" height="10.8" style="fill:#a6a6a6;"/><rect x="85" y="54" width="56.8" height="10.8" style="fill:#a6a6a6;"/><text transform="translate(113.4 71.8)" style="font-family:SourceSansPro-Regular, &apos;Source Sans Pro&apos;; font-size:12px;"><tspan x="0" y="0"> </tspan></text><rect x="147.4" y="54" width="11.4" height="10.8" style="fill:#fff;"/><rect x="152.6" y="54" width="1" height="10.8" style="fill:#fff;"/><text transform="translate(153 71.8)" style="font-family:SourceSansPro-Regular, &apos;Source Sans Pro&apos;; font-size:12px;"><tspan x="0" y="0"> </tspan></text><rect x="159.2" y="54" width="61.2" height="10.8" style="fill:#ccc;"/><rect x="164.4" y="54" width="50.8" height="10.8" style="fill:#ccc;"/><text transform="translate(189.8 71.8)" style="font-family:SourceSansPro-Regular, &apos;Source Sans Pro&apos;; font-size:12px;"><tspan x="0" y="0"> </tspan></text><rect y="54" width=".4" height="10.8"/><rect x="67.6" y="54" width=".4" height="10.8"/><rect x="79.4" y="54" width=".4" height="10.8"/><rect x="147" y="54" width=".4" height="10.8"/><rect x="158.8" y="54" width=".4" height="10.8"/><rect x="220.4" y="54" width=".4" height="10.8"/><rect x=".6" y="64.8" width="67" height="10.8" style="fill:#999;"/><rect x="5.6" y="64.8" width="56.8" height="10.8" style="fill:#999;"/><text transform="translate(34 82.6)" style="font-family:SourceSansPro-Regular, &apos;Source Sans Pro&apos;; font-size:12px;"><tspan x="0" y="0"> </tspan></text><rect x="68" y="64.8" width="11.4" height="10.8" style="fill:#fff;"/><rect x="73.2" y="64.8" width="1" height="10.8" style="fill:#fff;"/><text transform="translate(73.6 82.6)" style="font-family:SourceSansPro-Regular, &apos;Source Sans Pro&apos;; font-size:12px;"><tspan x="0" y="0"> </tspan></text><rect x="79.8" y="64.8" width="67.2" height="10.8" style="fill:#999;"/><rect x="85" y="64.8" width="56.8" height="10.8" style="fill:#999;"/><text transform="translate(113.4 82.6)" style="font-family:SourceSansPro-Regular, &apos;Source Sans Pro&apos;; font-size:12px;"><tspan x="0" y="0"> </tspan></text><rect x="147.4" y="64.8" width="11.4" height="10.8" style="fill:#fff;"/><rect x="152.6" y="64.8" width="1" height="10.8" style="fill:#fff;"/><text transform="translate(153 82.6)" style="font-family:SourceSansPro-Regular, &apos;Source Sans Pro&apos;; font-size:12px;"><tspan x="0" y="0"> </tspan></text><rect x="159.2" y="64.8" width="61.2" height="10.8" style="fill:#bfbfbf;"/><rect x="164.4" y="64.8" width="50.8" height="10.8" style="fill:#bfbfbf;"/><text transform="translate(189.8 82.6)" style="font-family:SourceSansPro-Regular, &apos;Source Sans Pro&apos;; font-size:12px;"><tspan x="0" y="0"> </tspan></text><rect y="64.8" width=".4" height="10.8"/><rect x="67.6" y="64.8" width=".4" height="10.8"/><rect x="79.4" y="64.8" width=".4" height="10.8"/><rect x="147" y="64.8" width=".4" height="10.8"/><rect x="158.8" y="64.8" width=".4" height="10.8"/><rect x="220.4" y="64.8" width=".4" height="10.8"/><rect x=".6" y="75.6" width="67" height="10.8" style="fill:#8c8c8c;"/><rect x="5.6" y="75.6" width="56.8" height="10.8" style="fill:#8c8c8c;"/><text transform="translate(34 93.4)" style="font-family:SourceSansPro-Regular, &apos;Source Sans Pro&apos;; font-size:12px;"><tspan x="0" y="0"> </tspan></text><rect x="68" y="75.6" width="11.4" height="10.8" style="fill:#fff;"/><rect x="73.2" y="75.6" width="1" height="10.8" style="fill:#fff;"/><text transform="translate(73.6 93.4)" style="font-family:SourceSansPro-Regular, &apos;Source Sans Pro&apos;; font-size:12px;"><tspan x="0" y="0"> </tspan></text><rect x="79.8" y="75.6" width="67.2" height="10.8" style="fill:#8c8c8c;"/><rect x="85" y="75.6" width="56.8" height="10.8" style="fill:#8c8c8c;"/><text transform="translate(113.4 93.4)" style="font-family:SourceSansPro-Regular, &apos;Source Sans Pro&apos;; font-size:12px;"><tspan x="0" y="0"> </tspan></text><rect x="147.4" y="75.6" width="11.4" height="10.8" style="fill:#fff;"/><rect x="152.6" y="75.6" width="1" height="10.8" style="fill:#fff;"/><text transform="translate(153 93.4)" style="font-family:SourceSansPro-Regular, &apos;Source Sans Pro&apos;; font-size:12px;"><tspan x="0" y="0"> </tspan></text><rect x="159.2" y="75.6" width="61.2" height="10.8" style="fill:#b2b2b2;"/><rect x="164.4" y="75.6" width="50.8" height="10.8" style="fill:#b2b2b2;"/><text transform="translate(189.8 93.4)" style="font-family:SourceSansPro-Regular, &apos;Source Sans Pro&apos;; font-size:12px;"><tspan x="0" y="0"> </tspan></text><rect y="75.6" width=".4" height="10.8"/><rect x="67.6" y="75.6" width=".4" height="10.8"/><rect x="79.4" y="75.6" width=".4" height="10.8"/><rect x="147" y="75.6" width=".4" height="10.8"/><rect x="158.8" y="75.6" width=".4" height="10.8"/><rect x="220.4" y="75.6" width=".4" height="10.8"/><rect x=".6" y="86.4" width="67" height="10.8" style="fill:#7f7f7f;"/><rect x="5.6" y="86.4" width="56.8" height="10.8" style="fill:#7f7f7f;"/><text transform="translate(34 104.2)" style="font-family:SourceSansPro-Regular, &apos;Source Sans Pro&apos;; font-size:12px;"><tspan x="0" y="0"> </tspan></text><rect x="68" y="86.4" width="11.4" height="10.8" style="fill:#fff;"/><rect x="73.2" y="86.4" width="1" height="10.8" style="fill:#fff;"/><text transform="translate(73.6 104.2)" style="font-family:SourceSansPro-Regular, &apos;Source Sans Pro&apos;; font-size:12px;"><tspan x="0" y="0"> </tspan></text><rect x="79.8" y="86.4" width="67.2" height="10.8" style="fill:#7f7f7f;"/><rect x="85" y="86.4" width="56.8" height="10.8" style="fill:#7f7f7f;"/><text transform="translate(113.4 104.2)" style="font-family:SourceSansPro-Regular, &apos;Source Sans Pro&apos;; font-size:12px;"><tspan x="0" y="0"> </tspan></text><rect x="147.4" y="86.4" width="11.4" height="10.8" style="fill:#fff;"/><rect x="152.6" y="86.4" width="1" height="10.8" style="fill:#fff;"/><text transform="translate(153 104.2)" style="font-family:SourceSansPro-Regular, &apos;Source Sans Pro&apos;; font-size:12px;"><tspan x="0" y="0"> </tspan></text><rect x="159.2" y="86.4" width="61.2" height="10.8" style="fill:#a6a6a6;"/><rect x="164.4" y="86.4" width="50.8" height="10.8" style="fill:#a6a6a6;"/><text transform="translate(189.8 104.2)" style="font-family:SourceSansPro-Regular, &apos;Source Sans Pro&apos;; font-size:12px;"><tspan x="0" y="0"> </tspan></text><rect y="86.4" width=".4" height="10.8"/><rect x="67.6" y="86.4" width=".4" height="10.8"/><rect x="79.4" y="86.4" width=".4" height="10.8"/><rect x="147" y="86.4" width=".4" height="10.8"/><rect x="158.8" y="86.4" width=".4" height="10.8"/><rect x="220.4" y="86.4" width=".4" height="10.8"/><rect x=".6" y="97.2" width="67" height="10.8" style="fill:#737373;"/><rect x="5.6" y="97.2" width="56.8" height="10.8" style="fill:#737373;"/><text transform="translate(34 115)" style="font-family:SourceSansPro-Regular, &apos;Source Sans Pro&apos;; font-size:12px;"><tspan x="0" y="0"> </tspan></text><rect x="68" y="97.2" width="11.4" height="10.8" style="fill:#fff;"/><rect x="73.2" y="97.2" width="1" height="10.8" style="fill:#fff;"/><text transform="translate(73.6 115)" style="font-family:SourceSansPro-Regular, &apos;Source Sans Pro&apos;; font-size:12px;"><tspan x="0" y="0"> </tspan></text><rect x="79.8" y="97.2" width="67.2" height="10.8" style="fill:#737373;"/><rect x="85" y="97.2" width="56.8" height="10.8" style="fill:#737373;"/><text transform="translate(113.4 115)" style="font-family:SourceSansPro-Regular, &apos;Source Sans Pro&apos;; font-size:12px;"><tspan x="0" y="0"> </tspan></text><rect x="147.4" y="97.2" width="11.4" height="10.8" style="fill:#fff;"/><rect x="152.6" y="97.2" width="1" height="10.8" style="fill:#fff;"/><text transform="translate(153 115)" style="font-family:SourceSansPro-Regular, &apos;Source Sans Pro&apos;; font-size:12px;"><tspan x="0" y="0"> </tspan></text><rect x="159.2" y="97.2" width="61.2" height="10.8" style="fill:#9f9f9f;"/><rect x="164.4" y="97.2" width="50.8" height="10.8" style="fill:#9f9f9f;"/><text transform="translate(189.8 115)" style="font-family:SourceSansPro-Regular, &apos;Source Sans Pro&apos;; font-size:12px;"><tspan x="0" y="0"> </tspan></text><rect y="97.2" width=".4" height="10.8"/><rect x="67.6" y="97.2" width=".4" height="10.8"/><rect x="79.4" y="97.2" width=".4" height="10.8"/><rect x="147" y="97.2" width=".4" height="10.8"/><rect x="158.8" y="97.2" width=".4" height="10.8"/><rect x="220.4" y="97.2" width=".4" height="10.8"/><rect x=".6" y="108" width="67" height="10.8" style="fill:#666;"/><rect x="5.6" y="108" width="56.8" height="10.8" style="fill:#666;"/><text transform="translate(34 125.8)" style="font-family:SourceSansPro-Regular, &apos;Source Sans Pro&apos;; font-size:12px;"><tspan x="0" y="0"> </tspan></text><rect x="68" y="108" width="11.4" height="10.8" style="fill:#fff;"/><rect x="73.2" y="108" width="1" height="10.8" style="fill:#fff;"/><text transform="translate(73.6 125.8)" style="font-family:SourceSansPro-Regular, &apos;Source Sans Pro&apos;; font-size:12px;"><tspan x="0" y="0"> </tspan></text><rect x="79.8" y="108" width="67.2" height="10.8" style="fill:#666;"/><rect x="85" y="108" width="56.8" height="10.8" style="fill:#666;"/><text transform="translate(113.4 125.8)" style="font-family:SourceSansPro-Regular, &apos;Source Sans Pro&apos;; font-size:12px;"><tspan x="0" y="0"> </tspan></text><rect x="147.4" y="108" width="11.4" height="10.8" style="fill:#fff;"/><rect x="152.6" y="108" width="1" height="10.8" style="fill:#fff;"/><text transform="translate(153 125.8)" style="font-family:SourceSansPro-Regular, &apos;Source Sans Pro&apos;; font-size:12px;"><tspan x="0" y="0"> </tspan></text><rect x="159.2" y="108" width="61.2" height="10.8" style="fill:#999;"/><rect x="164.4" y="108" width="50.8" height="10.8" style="fill:#999;"/><text transform="translate(189.8 125.8)" style="font-family:SourceSansPro-Regular, &apos;Source Sans Pro&apos;; font-size:12px;"><tspan x="0" y="0"> </tspan></text><rect y="108" width=".4" height="10.8"/><rect x="67.6" y="108" width=".4" height="10.8"/><rect x="79.4" y="108" width=".4" height="10.8"/><rect x="147" y="108" width=".4" height="10.8"/><rect x="158.8" y="108" width=".4" height="10.8"/><rect x="220.4" y="108" width=".4" height="10.8"/><rect x=".6" y="118.8" width="67" height="10.8" style="fill:#595959;"/><rect x="5.6" y="118.8" width="56.8" height="10.8" style="fill:#595959;"/><text transform="translate(34 136.6)" style="font-family:SourceSansPro-Regular, &apos;Source Sans Pro&apos;; font-size:12px;"><tspan x="0" y="0"> </tspan></text><rect x="68" y="118.8" width="11.4" height="10.8" style="fill:#fff;"/><rect x="73.2" y="118.8" width="1" height="10.8" style="fill:#fff;"/><text transform="translate(73.6 136.6)" style="font-family:SourceSansPro-Regular, &apos;Source Sans Pro&apos;; font-size:12px;"><tspan x="0" y="0"> </tspan></text><rect x="79.8" y="118.8" width="67.2" height="10.8" style="fill:#595959;"/><rect x="85" y="118.8" width="56.8" height="10.8" style="fill:#595959;"/><text transform="translate(113.4 136.6)" style="font-family:SourceSansPro-Regular, &apos;Source Sans Pro&apos;; font-size:12px;"><tspan x="0" y="0"> </tspan></text><rect x="147.4" y="118.8" width="11.4" height="10.8" style="fill:#fff;"/><rect x="152.6" y="118.8" width="1" height="10.8" style="fill:#fff;"/><text transform="translate(153 136.6)" style="font-family:SourceSansPro-Regular, &apos;Source Sans Pro&apos;; font-size:12px;"><tspan x="0" y="0"> </tspan></text><rect x="159.2" y="118.8" width="61.2" height="10.8" style="fill:#8c8c8c;"/><rect x="164.4" y="118.8" width="50.8" height="10.8" style="fill:#8c8c8c;"/><text transform="translate(189.8 136.6)" style="font-family:SourceSansPro-Regular, &apos;Source Sans Pro&apos;; font-size:12px;"><tspan x="0" y="0"> </tspan></text><rect y="118.8" width=".4" height="10.8"/><rect x="67.6" y="118.8" width=".4" height="10.8"/><rect x="79.4" y="118.8" width=".4" height="10.8"/><rect x="147" y="118.8" width=".4" height="10.8"/><rect x="158.8" y="118.8" width=".4" height="10.8"/><rect x="220.4" y="118.8" width=".4" height="10.8"/><rect x=".6" y="129.6" width="67" height="10.8" style="fill:#4c4c4c;"/><rect x="5.6" y="129.6" width="56.8" height="10.8" style="fill:#4c4c4c;"/><text transform="translate(34 147.4)" style="font-family:SourceSansPro-Regular, &apos;Source Sans Pro&apos;; font-size:12px;"><tspan x="0" y="0"> </tspan></text><rect x="68" y="129.6" width="11.4" height="10.8" style="fill:#fff;"/><rect x="73.2" y="129.6" width="1" height="10.8" style="fill:#fff;"/><text transform="translate(73.6 147.4)" style="font-family:SourceSansPro-Regular, &apos;Source Sans Pro&apos;; font-size:12px;"><tspan x="0" y="0"> </tspan></text><rect x="79.8" y="129.6" width="67.2" height="10.8" style="fill:#595959;"/><rect x="85" y="129.6" width="56.8" height="10.8" style="fill:#595959;"/><text transform="translate(113.4 147.4)" style="font-family:SourceSansPro-Regular, &apos;Source Sans Pro&apos;; font-size:12px;"><tspan x="0" y="0"> </tspan></text><rect x="147.4" y="129.6" width="11.4" height="10.8" style="fill:#fff;"/><rect x="152.6" y="129.6" width="1" height="10.8" style="fill:#fff;"/><text transform="translate(153 147.4)" style="font-family:SourceSansPro-Regular, &apos;Source Sans Pro&apos;; font-size:12px;"><tspan x="0" y="0"> </tspan></text><rect x="159.2" y="129.6" width="61.2" height="10.8" style="fill:#7f7f7f;"/><rect x="164.4" y="129.6" width="50.8" height="10.8" style="fill:#7f7f7f;"/><text transform="translate(189.8 147.4)" style="font-family:SourceSansPro-Regular, &apos;Source Sans Pro&apos;; font-size:12px;"><tspan x="0" y="0"> </tspan></text><rect y="129.6" width=".4" height="10.8"/><rect x="67.6" y="129.6" width=".4" height="10.8"/><rect x="79.4" y="129.6" width=".4" height="10.8"/><rect x="147" y="129.6" width=".4" height="10.8"/><rect x="158.8" y="129.6" width=".4" height="10.8"/><rect x="220.4" y="129.6" width=".4" height="10.8"/><rect x=".6" y="140.4" width="67" height="10.8" style="fill:#404040;"/><rect x="5.6" y="140.4" width="56.8" height="10.8" style="fill:#404040;"/><text transform="translate(34 158.2)" style="font-family:SourceSansPro-Regular, &apos;Source Sans Pro&apos;; font-size:12px;"><tspan x="0" y="0"> </tspan></text><rect x="68" y="140.4" width="11.4" height="10.8" style="fill:#fff;"/><rect x="73.2" y="140.4" width="1" height="10.8" style="fill:#fff;"/><text transform="translate(73.6 158.2)" style="font-family:SourceSansPro-Regular, &apos;Source Sans Pro&apos;; font-size:12px;"><tspan x="0" y="0"> </tspan></text><rect x="79.8" y="140.4" width="67.2" height="10.8" style="fill:#595959;"/><rect x="85" y="140.4" width="56.8" height="10.8" style="fill:#595959;"/><text transform="translate(113.4 158.2)" style="font-family:SourceSansPro-Regular, &apos;Source Sans Pro&apos;; font-size:12px;"><tspan x="0" y="0"> </tspan></text><rect x="147.4" y="140.4" width="11.4" height="10.8" style="fill:#fff;"/><rect x="152.6" y="140.4" width="1" height="10.8" style="fill:#fff;"/><text transform="translate(153 158.2)" style="font-family:SourceSansPro-Regular, &apos;Source Sans Pro&apos;; font-size:12px;"><tspan x="0" y="0"> </tspan></text><rect x="159.2" y="140.4" width="61.2" height="10.8" style="fill:#737373;"/><rect x="164.4" y="140.4" width="50.8" height="10.8" style="fill:#737373;"/><text transform="translate(189.8 158.2)" style="font-family:SourceSansPro-Regular, &apos;Source Sans Pro&apos;; font-size:12px;"><tspan x="0" y="0"> </tspan></text><rect y="140.4" width=".4" height="10.8"/><rect x="67.6" y="140.4" width=".4" height="10.8"/><rect x="79.4" y="140.4" width=".4" height="10.8"/><rect x="147" y="140.4" width=".4" height="10.8"/><rect x="158.8" y="140.4" width=".4" height="10.8"/><rect x="220.4" y="140.4" width=".4" height="10.8"/><rect x=".6" y="151.2" width="67" height="10.8" style="fill:#333;"/><rect x="5.6" y="151.2" width="56.8" height="10.8" style="fill:#333;"/><text transform="translate(34 169)" style="fill:#fff; font-family:SourceSansPro-Regular, &apos;Source Sans Pro&apos;; font-size:12px;"><tspan x="0" y="0"> </tspan></text><rect x="68" y="151.2" width="11.4" height="10.8" style="fill:#fff;"/><rect x="73.2" y="151.2" width="1" height="10.8" style="fill:#fff;"/><text transform="translate(73.6 169)" style="font-family:SourceSansPro-Regular, &apos;Source Sans Pro&apos;; font-size:12px;"><tspan x="0" y="0"> </tspan></text><rect x="79.8" y="151.2" width="67.2" height="10.8" style="fill:#595959;"/><rect x="85" y="151.2" width="56.8" height="10.8" style="fill:#595959;"/><text transform="translate(113.4 169)" style="font-family:SourceSansPro-Regular, &apos;Source Sans Pro&apos;; font-size:12px;"><tspan x="0" y="0"> </tspan></text><rect x="147.4" y="151.2" width="11.4" height="10.8" style="fill:#fff;"/><rect x="152.6" y="151.2" width="1" height="10.8" style="fill:#fff;"/><text transform="translate(153 169)" style="font-family:SourceSansPro-Regular, &apos;Source Sans Pro&apos;; font-size:12px;"><tspan x="0" y="0"> </tspan></text><rect x="159.2" y="151.2" width="61.2" height="10.8" style="fill:#666;"/><rect x="164.4" y="151.2" width="50.8" height="10.8" style="fill:#666;"/><text transform="translate(189.8 169)" style="font-family:SourceSansPro-Regular, &apos;Source Sans Pro&apos;; font-size:12px;"><tspan x="0" y="0"> </tspan></text><rect y="151.2" width=".4" height="10.8"/><rect x="67.6" y="151.2" width=".4" height="10.8"/><rect x="79.4" y="151.2" width=".4" height="10.8"/><rect x="147" y="151.2" width=".4" height="10.8"/><rect x="158.8" y="151.2" width=".4" height="10.8"/><rect x="220.4" y="151.2" width=".4" height="10.8"/><rect x=".6" y="162" width="67" height="10.8" style="fill:#262626;"/><rect x="5.6" y="162" width="56.8" height="10.8" style="fill:#262626;"/><text transform="translate(34 179.8)" style="fill:#fff; font-family:SourceSansPro-Regular, &apos;Source Sans Pro&apos;; font-size:12px;"><tspan x="0" y="0"> </tspan></text><rect x="68" y="162" width="11.4" height="10.8" style="fill:#fff;"/><rect x="73.2" y="162" width="1" height="10.8" style="fill:#fff;"/><text transform="translate(73.6 179.8)" style="font-family:SourceSansPro-Regular, &apos;Source Sans Pro&apos;; font-size:12px;"><tspan x="0" y="0"> </tspan></text><rect x="79.8" y="162" width="67.2" height="10.8" style="fill:#595959;"/><rect x="85" y="162" width="56.8" height="10.8" style="fill:#595959;"/><text transform="translate(113.4 179.8)" style="font-family:SourceSansPro-Regular, &apos;Source Sans Pro&apos;; font-size:12px;"><tspan x="0" y="0"> </tspan></text><rect x="147.4" y="162" width="11.4" height="10.8" style="fill:#fff;"/><rect x="152.6" y="162" width="1" height="10.8" style="fill:#fff;"/><text transform="translate(153 179.8)" style="font-family:SourceSansPro-Regular, &apos;Source Sans Pro&apos;; font-size:12px;"><tspan x="0" y="0"> </tspan></text><rect x="159.2" y="162" width="61.2" height="10.8" style="fill:#606060;"/><rect x="164.4" y="162" width="50.8" height="10.8" style="fill:#606060;"/><text transform="translate(189.8 179.8)" style="font-family:SourceSansPro-Regular, &apos;Source Sans Pro&apos;; font-size:12px;"><tspan x="0" y="0"> </tspan></text><rect y="162" width=".4" height="10.8"/><rect x="67.6" y="162" width=".4" height="10.8"/><rect x="79.4" y="162" width=".4" height="10.8"/><rect x="147" y="162" width=".4" height="10.8"/><rect x="158.8" y="162" width=".4" height="10.8"/><rect x="220.4" y="162" width=".4" height="10.8"/><rect x=".6" y="172.8" width="67" height="10.8" style="fill:#030303;"/><rect x="5.6" y="172.8" width="56.8" height="10.8" style="fill:#030303;"/><text transform="translate(34 190.6)" style="fill:#fff; font-family:SourceSansPro-Regular, &apos;Source Sans Pro&apos;; font-size:12px;"><tspan x="0" y="0"> </tspan></text><rect x="68" y="172.8" width="11.4" height="10.8" style="fill:#fff;"/><rect x="73.2" y="172.8" width="1" height="10.8" style="fill:#fff;"/><text transform="translate(73.6 190.6)" style="font-family:SourceSansPro-Regular, &apos;Source Sans Pro&apos;; font-size:12px;"><tspan x="0" y="0"> </tspan></text><rect x="79.8" y="172.8" width="67.2" height="10.8" style="fill:#595959;"/><rect x="85" y="172.8" width="56.8" height="10.8" style="fill:#595959;"/><text transform="translate(113.4 190.6)" style="font-family:SourceSansPro-Regular, &apos;Source Sans Pro&apos;; font-size:12px;"><tspan x="0" y="0"> </tspan></text><rect x="147.4" y="172.8" width="11.4" height="10.8" style="fill:#fff;"/><rect x="152.6" y="172.8" width="1" height="10.8" style="fill:#fff;"/><text transform="translate(153 190.6)" style="font-family:SourceSansPro-Regular, &apos;Source Sans Pro&apos;; font-size:12px;"><tspan x="0" y="0"> </tspan></text><rect x="159.2" y="172.8" width="61.2" height="10.8" style="fill:#595959;"/><rect x="164.4" y="172.8" width="50.8" height="10.8" style="fill:#595959;"/><text transform="translate(189.8 190.6)" style="font-family:SourceSansPro-Regular, &apos;Source Sans Pro&apos;; font-size:12px;"><tspan x="0" y="0"> </tspan></text><rect y="172.8" width=".4" height="10.8"/><rect x="67.6" y="172.8" width=".4" height="10.8"/><rect x="79.4" y="172.8" width=".4" height="10.8"/><rect x="147" y="172.8" width=".4" height="10.8"/><rect x="158.8" y="172.8" width=".4" height="10.8"/><rect x="220.4" y="172.8" width=".4" height="10.8"/><text transform="translate(10 198.6)" style="font-family:SourceSansPro-Bold, &apos;Source Sans Pro&apos;; font-size:9px; font-weight:700;"><tspan x="0" y="0" style="letter-spacing:0em;">R</tspan><tspan x="5.62" y="0" style="letter-spacing:0em;">G</tspan><tspan x="11.39" y="0" style="letter-spacing:0em;">B</tspan><tspan x="16.79" y="0"> </tspan><tspan x="18.67" y="0" style="letter-spacing:0em;">s</tspan><tspan x="22.66" y="0">o</tspan><tspan x="27.66" y="0" style="letter-spacing:0em;">u</tspan><tspan x="32.85" y="0" style="letter-spacing:0em;">r</tspan><tspan x="36.44" y="0">c</tspan><tspan x="40.64" y="0" style="letter-spacing:0em;">e</tspan><tspan x="45.25" y="0">:</tspan></text><text transform="translate(57.8 198.6)" style="font-family:SourceSansPro-Bold, &apos;Source Sans Pro&apos;; font-size:9px; font-weight:700;"><tspan x="0" y="0"> </tspan></text><text transform="translate(12.2 209.8)" style="font-family:SourceSansPro-Regular, &apos;Source Sans Pro&apos;; font-size:9px;"><tspan x="0" y="0" style="letter-spacing:0em;">C</tspan><tspan x="5.15" y="0" style="letter-spacing:0em;">o</tspan><tspan x="9.95" y="0" style="letter-spacing:0em;">n</tspan><tspan x="14.95" y="0" style="letter-spacing:0em;">t</tspan><tspan x="17.96" y="0" style="letter-spacing:0em;">i</tspan><tspan x="20.16" y="0" style="letter-spacing:0em;">n</tspan><tspan x="25.15" y="0" style="letter-spacing:0em;">u</tspan><tspan x="29.96" y="0" style="letter-spacing:0em;">o</tspan><tspan x="34.77" y="0" style="letter-spacing:0em;">u</tspan><tspan x="39.57" y="0" style="letter-spacing:0em;">s</tspan><tspan x="43.37" y="0"> </tspan></text><text transform="translate(9.4 221.2)" style="font-family:SourceSansPro-Regular, &apos;Source Sans Pro&apos;; font-size:9px;"><tspan x="0" y="0" style="letter-spacing:0em;">t</tspan><tspan x="3.01" y="0" style="letter-spacing:0em;">o</tspan><tspan x="7.81" y="0" style="letter-spacing:0em;">n</tspan><tspan x="12.81" y="0" style="letter-spacing:0em;">e</tspan><tspan x="17.21" y="0" style="letter-spacing:0em;"> </tspan><tspan x="19.03" y="0" style="letter-spacing:0em;">t</tspan><tspan x="22.03" y="0" style="letter-spacing:0em;">o</tspan><tspan x="26.84" y="0" style="letter-spacing:0em;"> </tspan><tspan x="28.66" y="0" style="letter-spacing:0em;">b</tspan><tspan x="33.67" y="0" style="letter-spacing:-.01em;">l</tspan><tspan x="35.87" y="0" style="letter-spacing:0em;">a</tspan><tspan x="40.54" y="0" style="letter-spacing:.01em;">c</tspan><tspan x="44.74" y="0">k</tspan></text><text transform="translate(58.6 221.2)" style="font-family:SourceSansPro-Bold, &apos;Source Sans Pro&apos;; font-size:9px; font-weight:700;"><tspan x="0" y="0"> </tspan></text><text transform="translate(73.6 198.6)" style="font-family:SourceSansPro-Regular, &apos;Source Sans Pro&apos;; font-size:9px;"><tspan x="0" y="0"> </tspan></text><text transform="translate(97.61 198.6)" style="font-family:SourceSansPro-Bold, &apos;Source Sans Pro&apos;; font-size:9px; font-weight:700;"><tspan x="0" y="0" style="letter-spacing:0em;">N</tspan><tspan x="5.99" y="0" style="letter-spacing:0em;">o </tspan><tspan x="12.85" y="0" style="letter-spacing:0em;">B</tspan><tspan x="18.25" y="0" style="letter-spacing:0em;">P</tspan><tspan x="23.72" y="0" style="letter-spacing:0em;">C</tspan><tspan x="28.91" y="0">:</tspan></text><text transform="translate(129.2 198.6)" style="font-family:SourceSansPro-Bold, &apos;Source Sans Pro&apos;; font-size:9px; font-weight:700;"><tspan x="0" y="0"> </tspan></text><text transform="translate(102.6 209.8)" style="font-family:SourceSansPro-Regular, &apos;Source Sans Pro&apos;; font-size:9px;"><tspan x="0" y="0" style="letter-spacing:0em;">T</tspan><tspan x="4.76" y="0" style="letter-spacing:0em;">o</tspan><tspan x="9.57" y="0" style="letter-spacing:0em;">n</tspan><tspan x="14.56" y="0" style="letter-spacing:0em;">a</tspan><tspan x="19.23" y="0" style="letter-spacing:0em;">l</tspan><tspan x="21.44" y="0"> </tspan></text><text transform="translate(91 221.2)" style="font-family:SourceSansPro-Regular, &apos;Source Sans Pro&apos;; font-size:9px;"><tspan x="0" y="0">p</tspan><tspan x="5" y="0" style="letter-spacing:0em;">r</tspan><tspan x="8.19" y="0" style="letter-spacing:0em;">o</tspan><tspan x="13" y="0" style="letter-spacing:0em;">g</tspan><tspan x="17.59" y="0" style="letter-spacing:0em;">r</tspan><tspan x="20.8" y="0" style="letter-spacing:0em;">e</tspan><tspan x="25.2" y="0" style="letter-spacing:0em;">ss</tspan><tspan x="32.79" y="0" style="letter-spacing:0em;">i</tspan><tspan x="35" y="0" style="letter-spacing:0em;">o</tspan><tspan x="39.81" y="0" style="letter-spacing:0em;">n</tspan><tspan x="44.8" y="0"> </tspan></text><text transform="translate(94.8 232.6)" style="font-family:SourceSansPro-Regular, &apos;Source Sans Pro&apos;; font-size:9px;"><tspan x="0" y="0" style="letter-spacing:0em;">t</tspan><tspan x="3.01" y="0" style="letter-spacing:0em;">r</tspan><tspan x="6.2" y="0" style="letter-spacing:0em;">u</tspan><tspan x="11.01" y="0" style="letter-spacing:0em;">n</tspan><tspan x="16" y="0" style="letter-spacing:0em;">c</tspan><tspan x="20.2" y="0" style="letter-spacing:0em;">a</tspan><tspan x="24.87" y="0" style="letter-spacing:0em;">t</tspan><tspan x="27.87" y="0" style="letter-spacing:0em;">e</tspan><tspan x="32.27" y="0">d</tspan></text><text transform="translate(131.99 232.6)" style="font-family:SourceSansPro-Bold, &apos;Source Sans Pro&apos;; font-size:9px; font-weight:700;"><tspan x="0" y="0"> </tspan></text><text transform="translate(152.99 198.6)" style="font-family:SourceSansPro-Regular, &apos;Source Sans Pro&apos;; font-size:9px;"><tspan x="0" y="0"> </tspan></text><text transform="translate(180.39 198.6)" style="font-family:SourceSansPro-Bold, &apos;Source Sans Pro&apos;; font-size:9px; font-weight:700;"><tspan x="0" y="0" style="letter-spacing:0em;">B</tspan><tspan x="5.4" y="0" style="letter-spacing:0em;">P</tspan><tspan x="10.87" y="0" style="letter-spacing:0em;">C</tspan><tspan x="16.06" y="0">:</tspan></text><text transform="translate(199.19 198.6)" style="font-family:SourceSansPro-Bold, &apos;Source Sans Pro&apos;; font-size:9px; font-weight:700;"><tspan x="0" y="0"> </tspan></text><text transform="translate(165.79 209.8)" style="font-family:SourceSansPro-Regular, &apos;Source Sans Pro&apos;; font-size:9px;"><tspan x="0" y="0" style="letter-spacing:0em;">Da</tspan><tspan x="10.24" y="0" style="letter-spacing:0em;">r</tspan><tspan x="13.44" y="0" style="letter-spacing:0em;">ke</tspan><tspan x="22.25" y="0" style="letter-spacing:0em;">s</tspan><tspan x="26.05" y="0" style="letter-spacing:0em;">t</tspan><tspan x="29.05" y="0" style="letter-spacing:0em;"> </tspan><tspan x="30.87" y="0" style="letter-spacing:0em;">t</tspan><tspan x="33.88" y="0" style="letter-spacing:0em;">o</tspan><tspan x="38.68" y="0" style="letter-spacing:0em;">n</tspan><tspan x="43.68" y="0" style="letter-spacing:0em;">e</tspan><tspan x="48.09" y="0"> </tspan></text><text transform="translate(169.19 221.2)" style="font-family:SourceSansPro-Regular, &apos;Source Sans Pro&apos;; font-size:9px;"><tspan x="0" y="0" style="letter-spacing:0em;">r</tspan><tspan x="3.2" y="0" style="letter-spacing:0em;">e</tspan><tspan x="7.6" y="0" style="letter-spacing:0em;">m</tspan><tspan x="15" y="0" style="letter-spacing:0em;">a</tspan><tspan x="19.67" y="0">pp</tspan><tspan x="29.66" y="0" style="letter-spacing:0em;">e</tspan><tspan x="34.07" y="0">d</tspan><tspan x="39.07" y="0" style="letter-spacing:0em;">;</tspan><tspan x="41.27" y="0" style="letter-spacing:0em;"> </tspan></text><text transform="translate(167.59 232.39)" style="font-family:SourceSansPro-Regular, &apos;Source Sans Pro&apos;; font-size:9px;"><tspan x="0" y="0" style="letter-spacing:0em;">b</tspan><tspan x="5.01" y="0" style="letter-spacing:0em;">e</tspan><tspan x="9.42" y="0" style="letter-spacing:0em;">tt</tspan><tspan x="15.43" y="0" style="letter-spacing:0em;">e</tspan><tspan x="19.84" y="0" style="letter-spacing:0em;">r</tspan><tspan x="23.03" y="0"> </tspan><tspan x="24.85" y="0" style="letter-spacing:0em;">t</tspan><tspan x="27.85" y="0" style="letter-spacing:0em;">o</tspan><tspan x="32.66" y="0" style="letter-spacing:0em;">n</tspan><tspan x="37.66" y="0" style="letter-spacing:0em;">a</tspan><tspan x="42.33" y="0">l</tspan></text><text transform="translate(211.99 232.39)" style="font-family:SourceSansPro-Regular, &apos;Source Sans Pro&apos;; font-size:9px;"><tspan x="0" y="0"> </tspan></text><text transform="translate(167.38 243.8)" style="font-family:SourceSansPro-Regular, &apos;Source Sans Pro&apos;; font-size:9px;"><tspan x="0" y="0">p</tspan><tspan x="5" y="0" style="letter-spacing:0em;">r</tspan><tspan x="8.19" y="0" style="letter-spacing:0em;">o</tspan><tspan x="13" y="0" style="letter-spacing:0em;">g</tspan><tspan x="17.59" y="0" style="letter-spacing:0em;">r</tspan><tspan x="20.79" y="0" style="letter-spacing:0em;">e</tspan><tspan x="25.19" y="0" style="letter-spacing:0em;">ss</tspan><tspan x="32.79" y="0" style="letter-spacing:0em;">i</tspan><tspan x="34.99" y="0" style="letter-spacing:0em;">o</tspan><tspan x="39.8" y="0">n</tspan></text><text transform="translate(211.99 243.8)" style="font-family:SourceSansPro-Bold, &apos;Source Sans Pro&apos;; font-size:9px; font-weight:700;"><tspan x="0" y="0"> </tspan></text></svg>